<svg width="64" height="36" viewBox="0 0 64 36" fill="none" xmlns="http://www.w3.org/2000/svg">
<path d="M30.5681 2.23633C26.9119 7.18555 25.0837 11.8203 24.8857 16.7148C24.6572 22.4297 26.3787 27.3379 30.6747 33.1348C31.3603 34.0645 31.9544 34.8164 32.0001 34.8164C32.122 34.8164 34.4986 31.5625 35.2603 30.332C37.2255 27.2012 38.5662 23.6055 39.0232 20.2695C39.2669 18.4375 39.1146 14.9238 38.7185 13.2148C38.0787 10.5078 37.1037 8.11523 35.6412 5.57227C34.6509 3.87695 32.2287 0.5 32.0001 0.5C31.924 0.5 31.2841 1.2793 30.5681 2.23633Z" fill="white"/>
<path d="M13.9623 5.62695C13.4291 8.77148 13.3377 13.7344 13.7795 14.2266C13.8709 14.3223 14.3584 14.541 14.8611 14.7188C16.3845 15.2383 19.2334 16.6191 20.5588 17.4668C21.2443 17.918 21.8384 18.2734 21.8537 18.2734C21.8842 18.2734 21.9451 17.5078 22.006 16.5645C22.1127 14.7598 22.5088 12.4492 22.9963 10.7539L23.3009 9.72852L22.5849 9.1543C21.6404 8.375 18.7611 6.41992 17.6033 5.76367C16.8111 5.3125 14.3431 4.05469 14.2517 4.05469C14.2365 4.05469 14.1146 4.76562 13.9623 5.62695Z" fill="white"/>
<path d="M48.1789 4.80664C45.7566 6.06445 43.1973 7.71875 41.3387 9.20898L40.6836 9.72852L41.0035 10.7539C41.491 12.4082 41.8871 14.6777 41.9938 16.5918L42.1004 18.3828L42.9535 17.7949C44.6445 16.6465 48.4531 14.7871 49.7176 14.5137C49.9461 14.459 50.1898 14.3496 50.2508 14.2539C50.4488 13.9805 50.5402 11.1367 50.4184 9.11328C50.2813 7.08984 49.8395 4.05469 49.6871 4.05469C49.6414 4.06836 48.9559 4.39648 48.1789 4.80664Z" fill="white"/>
<path d="M0.921875 15.1291C0.921875 15.4982 1.88164 18.1642 2.61289 19.8185C6.13203 27.7619 12.2105 32.6154 21.1227 34.5978C21.9453 34.7756 23.3164 35.0353 24.1543 35.1447C25.693 35.3771 28.8313 35.6369 28.9227 35.5685C28.9531 35.5412 28.5113 34.8849 27.9477 34.1056C25.6625 31.0158 23.4078 26.381 22.6309 23.1818C22.3871 22.1701 22.3566 22.1291 21.3664 21.3361C19.3859 19.7502 17.9844 18.8888 15.7602 17.8908C12.2867 16.3322 7.625 15.2658 3.38984 15.0607C2.49102 15.0197 1.57695 14.9513 1.34844 14.924C0.998047 14.8693 0.921875 14.9103 0.921875 15.1291Z" fill="white"/>
<path d="M59.8789 15.0879C52.5816 15.7578 46.7469 17.8633 42.8012 21.2539L41.5824 22.3067L41.2168 23.6739C40.6836 25.6836 39.8762 27.6797 38.7793 29.7305C37.8195 31.5078 36.2352 33.9824 35.443 34.9395C35.2297 35.1992 35.0469 35.459 35.0469 35.5274C35.0469 35.7598 39.7848 35.2403 42.3441 34.7344C47.5848 33.6817 51.8656 31.6172 55.2477 28.5C58.6754 25.3692 60.9148 21.6778 62.8191 16.1133L63.2 14.9922L61.8137 15.0196C61.0367 15.0196 60.1684 15.0606 59.8789 15.0879Z" fill="white"/>
</svg>
